<?xml version="1.0" encoding="UTF-8"?>
<svg width="106px" height="25px" viewBox="0 0 106 25" version="1.1" xmlns="http://www.w3.org/2000/svg" xmlns:xlink="http://www.w3.org/1999/xlink">
    <!-- Generator: Sketch 58 (84663) - https://sketch.com -->
    <title>arte</title>
    <desc>Created with Sketch.</desc>
    <g id="Blackmeal-GOOD" stroke="none" stroke-width="1" fill="none" fill-rule="evenodd">
        <g id="002-001-Les-projets-Copy-5" transform="translate(-170.000000, -2519.000000)" fill="#FFFFFF">
            <g id="arte" transform="translate(170.000000, 2519.000000)">
                <path d="M58.2805755,0 C61.8057554,0 65.2805755,0 68.8057554,0 C68.8057554,1.56167297 68.8057554,3.07454367 68.8057554,4.63621664 C70.8705036,4.63621664 72.9352518,4.63621664 75,4.63621664 C75,6.7347147 75,8.88201504 75,10.9805131 C72.9352518,10.9805131 70.8705036,10.9805131 68.8057554,10.9805131 C68.8057554,15.6167297 68.8057554,20.1553418 68.8057554,24.7915585 C66.1870504,25.0355699 63.0143885,25.1819767 61,24.5475471 C59.942446,24.2059311 58.9856115,23.2298855 58.6330935,22.2538399 C58.2805755,21.3753988 58.2805755,13.7134408 58.2805755,10.9805131 C56.8705036,10.9805131 55.4100719,10.9805131 54,10.9805131 C54,8.83321276 54,6.7347147 54,4.63621664 C55.4100719,4.63621664 56.8705036,4.63621664 58.2805755,4.63621664 C58.2805755,3.12334595 58.2302158,1.46406841 58.2805755,0 Z" id="Path"></path>
                <path d="M13.8628188,4.06480993 C19.8074285,3.62251718 26.5013589,5.44083181 27.7502265,9.6180411 C27.8001812,9.81461565 27.9500453,10.6500575 27.9500453,10.6500575 C27.9500453,10.6500575 28,22.1005253 28,25 C24.5531254,25 21.0562961,25 17.6094216,25 C17.6094216,23.0833981 17.6094216,21.1667962 17.6094216,19.2010506 C14.7120487,20.0364925 8.46771072,21.2650835 12.464087,25 C9.96635184,25 3.32237621,25 2.12346331,25 C0.624822187,24.6559945 -0.274362485,22.6411053 0.0753204429,20.6753598 C0.425003371,18.9061888 1.57396156,17.6284542 2.92273857,16.842156 C6.26970374,14.9255541 11.2152194,15.0238414 15.5612787,14.0409686 C16.1107804,13.8935377 16.7102369,13.844394 17.1098745,13.5495322 C17.359648,13.3529576 17.4595574,13.1563831 17.5594669,12.763234 C17.8591951,11.0432066 16.0608257,10.5026266 14.4622752,10.5517702 C13.9627282,10.5517702 13.2633623,10.6500575 12.8637247,10.7483448 C12.5639965,10.8466321 12.1144041,11.0432066 11.9145853,11.2397812 C11.4150383,11.6329303 11.11531,12.2226539 11.11531,13.1072394 C7.76834486,13.1072394 4.42137969,13.1072394 1.12436923,13.1072394 C1.22427864,12.2226539 1.37414275,11.4854994 1.67387097,10.8466321 C2.12346331,9.6180411 2.77287446,8.63516833 3.62210443,7.75058283 C5.7701567,5.34254454 9.4668048,4.4088154 13.8628188,4.06480993 Z" id="Path"></path>
                <path d="M49.0335196,4.01941223 C50.1899441,3.9204472 51.1955307,4.2173423 52,4.51423741 C52,6.6419857 52,8.81921651 52,10.9469648 C50.1396648,10.9469648 48.1284916,10.8479998 46.8212291,11.3923075 C46.0167598,11.7386851 45.2625698,12.4809229 44.9106145,13.2726432 C44.5083799,14.2622935 44.6592179,15.8952166 44.6592179,17.2807271 C44.6592179,19.8538181 44.6592179,22.426909 44.6592179,25 C41.0893855,25 37.5698324,25 34,25 C34,18.1714125 34,11.3428249 34,4.51423741 C37.2681564,4.51423741 40.5865922,4.51423741 43.8547486,4.51423741 C43.8547486,5.30595771 43.8044693,6.34509059 43.8547486,6.98836333 C44.9106145,5.30595771 46.4692737,4.2173423 49.0335196,4.01941223 Z" id="Path"></path>
                <g id="Group" transform="translate(76.000000, 4.000000)" fill-rule="nonzero">
                    <path d="M28.5254237,7.42325581 C27.5084746,5.2255814 25.7288136,3.32093023 23.5932203,2.19767442 C21.1016949,0.879069767 17.5932203,1.1379786e-15 13.5762712,0.293023256 C6.40677966,0.781395349 1.47457627,3.95581395 0.305084746,10.255814 C-0.152542373,12.6 0.152542373,15.3348837 0.86440678,17.1906977 C1.16949153,17.972093 2.54237288,20.7069767 3.15254237,20.9511628 C4.06779661,20.9023256 9,20.9511628 10.9830508,20.9511628 C10.9830508,19.2418605 10.9830508,17.5813953 10.9830508,15.872093 C17.1864407,15.872093 23.3898305,15.872093 29.5932203,15.872093 C30,12.844186 29.5423729,9.62093023 28.5254237,7.42325581 Z M10.6271186,10.5976744 C10.6779661,9.66976744 10.8305085,9.03488372 11.1864407,8.44883721 C11.7457627,7.52093023 12.7118644,6.88604651 14.0847458,6.73953488 C17.440678,6.39767442 18.9661017,7.91162791 19.2711864,10.5976744 C16.4237288,10.5976744 13.5254237,10.5976744 10.6271186,10.5976744 Z" id="path17"></path>
                </g>
            </g>
        </g>
    </g>
</svg>