<?xml version="1.0" encoding="UTF-8"?>
<svg width="78px" height="124px" viewBox="0 0 78 124" version="1.1" xmlns="http://www.w3.org/2000/svg" xmlns:xlink="http://www.w3.org/1999/xlink">
    <!-- Generator: Sketch 58 (84663) - https://sketch.com -->
    <title>Group 3</title>
    <desc>Created with Sketch.</desc>
    <defs>
        <polygon id="path-1" points="2.07259432e-05 8.29037729e-05 77.1108718 8.29037729e-05 77.1108718 123.377395 2.07259432e-05 123.377395"></polygon>
    </defs>
    <g id="Blackmeal-GOOD" stroke="none" stroke-width="1" fill="none" fill-rule="evenodd">
        <g id="002-001-Les-projets-Copy-5" transform="translate(-645.000000, -193.000000)">
            <g id="Group-3" transform="translate(645.000000, 193.000000)">
                <mask id="mask-2" fill="white">
                    <use xlink:href="#path-1"></use>
                </mask>
                <g id="Clip-2"></g>
                <path d="M71.9700295,61.6887803 C71.9700295,64.521395 69.6617812,66.829436 66.8291666,66.829436 C63.9967592,66.829436 61.6887181,64.521395 61.6887181,61.6887803 L61.6887181,51.4072617 C61.6887181,48.5748543 63.9967592,46.266606 66.8291666,46.266606 C69.6617812,46.266606 71.9700295,48.5748543 71.9700295,51.4072617 L71.9700295,61.6887803 Z M71.9700295,84.837379 C71.9700295,103.261914 56.9797838,118.252159 38.5552493,118.252159 C20.1311294,118.252159 5.14067642,103.261914 5.14067642,84.837379 C5.14067642,78.8896551 7.45908043,73.3015263 11.6591928,69.1016212 L14.5687007,66.1921132 L19.9665654,62.5934677 C25.3694043,58.9796923 32.2272044,58.1931427 38.3189736,60.4806651 L42.6886242,62.1205017 C42.6935984,62.1256832 42.7039614,62.1256832 42.7089356,62.1256832 L43.0071819,62.2388468 C44.9554206,62.973996 46.2663365,64.8606787 46.2663365,66.9425997 C46.2663365,69.713451 44.01467,71.9651175 41.2438187,71.9651175 C35.5068776,71.9651175 30.1144017,74.2012395 26.0581274,78.2573066 L21.3133372,83.002304 C20.3108233,84.0046106 20.3108233,85.6342915 21.3133372,86.6365982 C21.8171849,87.1404458 22.4750263,87.3924733 23.133075,87.3924733 C23.7911237,87.3924733 24.4491724,87.1404458 24.9528128,86.6419869 L29.6978102,81.8969895 C32.7824524,78.8125546 36.8847383,77.1109547 41.2490002,77.1109547 C45.0685843,77.1109547 48.3640092,74.9672703 50.0962836,71.8415909 C50.5331864,71.8981727 50.9702966,71.9700917 51.4071995,71.9700917 C54.4916343,71.9700917 57.231604,70.5771011 59.1182866,68.4178723 C61.0049693,70.5719196 63.7447317,71.9700917 66.8291666,71.9700917 C68.7106677,71.9700917 70.4535123,71.4254139 71.9700295,70.5410379 L71.9700295,84.837379 Z M5.2588143,13.1757723 C5.18171379,12.795244 5.14585791,12.4097414 5.14585791,12.0242389 L5.14585791,11.0577881 C5.14585791,7.80360779 7.79318264,5.1560758 11.047363,5.1560758 C13.8488887,5.1560758 16.2856379,7.15074057 16.8357044,9.90107324 L25.7551141,54.496878 C25.7650625,54.5586413 25.8011257,54.6048602 25.8164629,54.661442 C22.7475724,55.3244649 19.7916384,56.5377616 17.1186135,58.3164621 L14.6201011,59.9819989 L5.2588143,13.1757723 Z M42.2566955,8.67762081 C42.7758804,6.60585553 44.6264999,5.1560758 46.76521,5.1560758 C49.3302527,5.1560758 51.412381,7.23820405 51.412381,9.80345405 L51.412381,12.1527397 C51.412381,12.4559603 51.3814993,12.7643623 51.319736,13.0626086 L46.4721451,37.3011847 C43.3002468,39.054185 41.1256808,42.3904401 41.1256808,46.266606 L41.1256808,56.0494584 L40.1283484,55.6741116 C37.1467142,54.5586413 34.021242,54.0444307 30.9059255,54.0856753 L42.2566955,8.67762081 Z M56.5478552,46.266606 L56.5478552,61.6887803 C56.5478552,64.521395 54.1419877,66.7780357 51.3864735,66.7780357 C51.3249175,63.2001161 49.309734,60.018062 46.2663365,58.2495173 L46.2663365,46.266606 C46.2663365,43.4339913 48.5745848,41.1259503 51.4071995,41.1259503 C54.2396069,41.1259503 56.5478552,43.4288098 56.5478552,46.266606 L56.5478552,46.266606 Z M77.1108925,51.4072617 C77.1108925,45.7370581 72.4995774,41.1259503 66.8291666,41.1259503 C64.6958452,41.1259503 62.7167249,41.7788175 61.0717068,42.8942877 C59.724935,39.054185 56.1982085,36.2729707 51.9624475,36.0416691 L56.357591,14.070304 C56.4811176,13.4379555 56.5478552,12.795244 56.5478552,12.1423767 L56.5478552,9.79827256 C56.5478552,4.40040791 52.1576859,0.010238616 46.7598212,0.010238616 C42.2616698,0.010238616 38.3550367,3.0588176 37.2650594,7.42328673 L28.5516656,42.2720949 L21.8737667,8.87804068 C20.8455526,3.73738499 16.2908194,8.29037729e-05 11.0421815,8.29037729e-05 C4.95559375,8.29037729e-05 2.07259432e-05,4.95565593 2.07259432e-05,11.0422437 L2.07259432e-05,12.0086944 C2.07259432e-05,12.7336879 0.0719397489,13.4636556 0.215777795,14.1731047 L10.0603936,63.4057174 L8.02469142,65.4466011 C2.84776532,70.6285014 2.07259432e-05,77.5016387 2.07259432e-05,84.8220418 C2.07259432e-05,106.083958 17.2933332,123.377478 38.5552493,123.377478 C59.8173727,123.377478 77.1108925,106.083958 77.1108925,84.8425605 L77.1108925,61.709299 L77.1108925,61.7041175 L77.1108925,61.6887803 L77.1108925,51.4072617 Z" id="Fill-1" fill="#FFFFFF" mask="url(#mask-2)"></path>
            </g>
        </g>
    </g>
</svg>