<?xml version="1.0" encoding="UTF-8"?>
<svg width="119px" height="21px" viewBox="0 0 119 21" version="1.1" xmlns="http://www.w3.org/2000/svg" xmlns:xlink="http://www.w3.org/1999/xlink">
    <!-- Generator: Sketch 58 (84663) - https://sketch.com -->
    <title>loreal</title>
    <desc>Created with Sketch.</desc>
    <g id="Blackmeal-GOOD" stroke="none" stroke-width="1" fill="none" fill-rule="evenodd">
        <g id="002-001-Les-projets-Copy-5" transform="translate(-771.000000, -2664.000000)" fill="#FFFFFF">
            <g id="loreal" transform="translate(771.000000, 2664.000000)">
                <polygon id="Path" points="64 20 80 20 80 18.1438475 66.744186 18.1438475 66.744186 12.1923744 76.6976744 12.1923744 76.6976744 10.3214905 66.744186 10.3214905 66.744186 4.84142114 80 4.84142114 80 3 64 3"></polygon>
                <polygon id="Path" points="72.2323462 1.8385859e-16 70 2 77 0"></polygon>
                <polygon id="Path" points="105.469799 18.1438475 105.469799 3 103 3 103 20 119 20 119 18.1438475"></polygon>
                <path d="M89.8112938,3 L81,20 L83.9721229,20 L86.2237312,15.5953206 L96.7912795,15.5953206 L99.0578985,20 L102,20 L93.2037169,3 L89.8112938,3 Z M87.3345247,13.4740035 L91.4924946,5.35701906 L95.6954968,13.4740035 L87.3345247,13.4740035 Z" id="Shape" fill-rule="nonzero"></path>
                <path d="M56.6661102,12.8909091 C60.6477462,11.8458874 61.0233723,8.96103896 61.0083472,7.91601732 C60.7679466,4.88398268 58.6794658,3 54.9382304,3 L44,3 L44,20 L46.4941569,20 L46.4941569,12.8761905 L53.6160267,12.8761905 L58.8597663,20 L62,20 C61.984975,20 58.2136895,15.2017316 56.6661102,12.8909091 L56.6661102,12.8909091 Z M54.5926544,10.8597403 L46.4941569,10.8597403 L46.4941569,5.01645022 L54.8781302,5.01645022 C56.8013356,5.01645022 57.8981636,5.8995671 58.2888147,7.01818182 C58.5442404,7.78354978 58.3789649,8.7991342 57.9582638,9.47619048 C57.2370618,10.6242424 55.9148581,10.8597403 54.5926544,10.8597403 Z" id="Shape" fill-rule="nonzero"></path>
                <path d="M29.5,0 C22.6613723,0 18,4.7859116 18,10.5870166 C18,16.6926796 23.1581957,21 29.5,21 C35.8564168,21 41,16.7506906 41,10.5870166 C41,4.7859116 36.2801779,0 29.5,0 L29.5,0 Z M29.4123253,18.9116022 C24.6778907,18.9116022 20.7763659,15.140884 20.7763659,10.5870166 C20.7763659,6.04765193 24.4879288,2.08839779 29.5876747,2.08839779 C34.5559085,2.08839779 38.2236731,6.04765193 38.2236731,10.5870166 C38.2382465,15.140884 34.1467598,18.9116022 29.4123253,18.9116022 Z" id="Shape" fill-rule="nonzero"></path>
                <polygon id="Path" points="11 9 12.7804154 9 16 3 13.4035608 3"></polygon>
                <polygon id="Path" points="2.46743295 18.1438475 2.46743295 3 0 3 0 20 16 20 16 18.1438475"></polygon>
            </g>
        </g>
    </g>
</svg>